<?xml version="1.0" standalone="no"?>
<!DOCTYPE svg PUBLIC "-//W3C//DTD SVG 20010904//EN"
 "http://www.w3.org/TR/2001/REC-SVG-20010904/DTD/svg10.dtd">
<svg version="1.0" xmlns="http://www.w3.org/2000/svg"
 width="256.000000pt" height="256.000000pt" viewBox="0 0 256.000000 256.000000"
 preserveAspectRatio="xMidYMid meet">

<g transform="translate(0.000000,256.000000) scale(0.100000,-0.100000)"
fill="#000000" stroke="none">
<path d="M466 2298 c-13 -18 -16 -53 -16 -169 0 -162 6 -179 67 -179 56 0 63
20 63 181 0 167 -8 189 -65 189 -24 0 -39 -7 -49 -22z"/>
<path d="M854 2306 c-17 -13 -19 -30 -22 -161 -3 -121 -1 -150 12 -171 21 -31
75 -33 102 -3 17 19 19 35 16 167 -2 117 -6 150 -19 164 -19 22 -62 23 -89 4z"/>
<path d="M1238 2303 c-20 -23 -35 -274 -19 -315 18 -46 98 -51 122 -7 16 32 2
305 -18 325 -20 19 -67 18 -85 -3z"/>
<path d="M1617 2302 c-13 -14 -16 -46 -18 -165 -2 -167 5 -187 67 -187 58 0
66 25 62 195 -3 131 -5 148 -22 161 -27 19 -70 18 -89 -4z"/>
<path d="M1996 2298 c-13 -18 -16 -53 -16 -169 0 -126 2 -148 18 -161 31 -28
57 -30 85 -7 l27 20 0 148 c0 169 -7 191 -65 191 -24 0 -39 -7 -49 -22z"/>
<path d="M1205 1650 c-72 -10 -118 -26 -110 -39 3 -6 41 -35 85 -66 l80 -56 0
-94 0 -94 -76 -56 -76 -56 -81 29 -81 29 -36 109 -36 108 -27 -35 c-37 -49
-66 -117 -82 -197 -15 -68 -20 -142 -9 -142 3 0 37 24 77 53 40 29 77 56 84
60 6 4 48 -7 92 -24 l80 -32 31 -90 30 -91 -25 -36 c-65 -91 -52 -84 -176 -90
l-112 -5 41 -51 c22 -28 68 -69 101 -92 61 -40 169 -87 179 -78 2 3 -9 46 -27
95 -17 50 -31 96 -31 103 0 7 21 39 46 71 l46 57 88 0 88 0 55 -60 54 -60 -29
-97 c-15 -53 -26 -98 -23 -101 9 -9 97 30 158 72 34 22 83 68 110 101 l48 60
-118 2 -118 3 -46 51 -46 51 27 87 26 86 83 43 83 44 84 -56 c46 -31 86 -56
89 -56 10 0 4 76 -10 138 -16 68 -60 160 -98 207 l-24 29 -26 -84 c-14 -47
-29 -98 -33 -113 -5 -24 -20 -35 -81 -63 -42 -19 -80 -31 -87 -27 -6 3 -41 28
-78 56 l-68 49 0 92 0 92 85 63 c47 34 83 66 80 70 -14 24 -173 42 -260 31z"/>
<path d="M605 460 c-22 -4 77 -8 220 -8 153 -1 266 2 275 8 18 11 -432 11
-495 0z"/>
</g>
</svg>
